<svg width="90" height="90" viewBox="0 0 90 90" fill="none" xmlns="http://www.w3.org/2000/svg">
<g clip-path="url(#clip0)">
<path d="M90 45C90.008 51.0916 88.775 57.121 86.376 62.7204L86.2269 63.0639C82.169 72.2954 75.1327 79.8996 66.2433 84.6604C57.3538 89.4212 47.1246 91.0636 37.1916 89.325C36.9213 89.277 36.6515 89.2273 36.3821 89.1759C33.5987 88.6363 30.873 87.8325 28.2422 86.7754C27.8148 86.6037 27.3905 86.4257 26.9694 86.2415C26.6818 86.1164 26.3942 85.9872 26.1093 85.8541C18.3154 82.2419 11.7167 76.4768 7.09074 69.2385C2.46481 62.0002 0.00457543 53.5902 0 45C0 20.1475 20.1475 0 45 0C69.8525 0 90 20.1475 90 45Z" fill="#6C63FF"/>
<path opacity="0.2" d="M37.1916 89.325C36.9214 89.2771 36.6515 89.2274 36.3822 89.1759C36.2064 84.0755 35.6033 73.607 33.5464 62.6432C32.4214 56.6428 30.8597 50.4919 28.6935 44.9934C27.9514 43.0908 27.1038 41.2311 26.1546 39.4229C23.9659 35.2891 21.3112 31.8089 18.0919 29.4511L18.5659 28.804C21.2433 30.7664 23.6495 33.5215 25.7845 37.0691C26.4249 38.1315 27.04 39.265 27.6298 40.4694C28.2622 41.7582 28.8653 43.1264 29.4391 44.574C29.8052 45.4953 30.1589 46.4485 30.5002 47.4338C31.986 51.7114 33.249 56.5922 34.2893 62.0761C34.5196 63.2876 34.7388 64.5289 34.947 65.7999C36.5592 75.648 37.0452 84.7531 37.1916 89.325Z" fill="black"/>
<path opacity="0.2" d="M26.9694 86.2416C26.6818 86.1164 26.3943 85.9873 26.1093 85.8541C25.8311 82.832 25.3198 79.0828 24.3852 75.5241C23.9759 73.9258 23.4504 72.3595 22.8129 70.8377C21.7465 68.3414 20.3659 66.2192 18.5805 64.9105L19.0545 64.2648C20.9237 65.6334 22.3656 67.7969 23.4799 70.3278C24.7354 73.1796 25.5728 76.4987 26.1306 79.67C26.5447 82.0252 26.8056 84.3005 26.9694 86.2416Z" fill="black"/>
<path opacity="0.2" d="M13.6148 29.4324C15.8271 29.4324 17.6206 27.639 17.6206 25.4266C17.6206 23.2142 15.8271 21.4207 13.6148 21.4207C11.4024 21.4207 9.60889 23.2142 9.60889 25.4266C9.60889 27.639 11.4024 29.4324 13.6148 29.4324Z" fill="black"/>
<path opacity="0.2" d="M14.9047 63.9159C17.1171 63.9159 18.9106 62.1224 18.9106 59.91C18.9106 57.6976 17.1171 55.9041 14.9047 55.9041C12.6924 55.9041 10.8989 57.6976 10.8989 59.91C10.8989 62.1224 12.6924 63.9159 14.9047 63.9159Z" fill="black"/>
<path opacity="0.2" d="M29.5182 32.1552C28.6688 36.9478 30.544 41.2873 30.544 41.2873C30.544 41.2873 33.7965 37.8567 34.646 33.0641C35.4954 28.2716 33.6202 23.932 33.6202 23.932C33.6202 23.932 30.3677 27.3627 29.5182 32.1552Z" fill="black"/>
<path opacity="0.2" d="M16.205 43.5317C20.7762 45.2032 25.3696 44.1305 25.3696 44.1305C25.3696 44.1305 22.5517 40.3478 17.9805 38.6762C13.4092 37.0047 8.8158 38.0774 8.8158 38.0774C8.8158 38.0774 11.6338 41.8602 16.205 43.5317Z" fill="black"/>
<path opacity="0.2" d="M15.4299 74.068C18.6339 75.2396 21.8581 74.4753 21.8581 74.4753C21.8581 74.4753 19.8875 71.8115 16.6834 70.6399C13.4794 69.4683 10.2552 70.2325 10.2552 70.2325C10.2552 70.2325 12.2258 72.8964 15.4299 74.068Z" fill="black"/>
<path d="M44.9076 54.9651C54.5966 54.9651 62.451 47.1107 62.451 37.4217C62.451 27.7328 54.5966 19.8784 44.9076 19.8784C35.2187 19.8784 27.3643 27.7328 27.3643 37.4217C27.3643 47.1107 35.2187 54.9651 44.9076 54.9651Z" fill="#D0CDE1"/>
<path d="M38.0547 50.8534C38.0547 50.8534 40.2477 61.2697 40.2477 62.3662C40.2477 63.4626 50.664 68.3967 50.664 68.3967L59.9839 66.752L63.2733 56.8839C63.2733 56.8839 57.791 48.6604 57.791 45.3711L38.0547 50.8534Z" fill="#D0CDE1"/>
<path d="M86.3761 62.7204L86.227 63.0639C82.1691 72.2955 75.1328 79.8996 66.2433 84.6604C57.3538 89.4212 47.1247 91.0636 37.1916 89.325C36.9214 89.2771 36.6515 89.2274 36.3822 89.1759C33.5987 88.6363 30.8731 87.8325 28.2422 86.7754C27.8148 86.6037 27.3906 86.4257 26.9694 86.2416C26.6819 86.1164 26.3943 85.9873 26.1094 85.8541C23.5269 84.6577 21.0639 83.2187 18.7536 81.5565L16.674 75.5241L17.8429 74.6321L20.2474 72.7962L22.8129 70.8377L23.4799 70.3278L33.5463 62.6432L34.2893 62.0761L39.5215 58.082L39.5228 58.0807C39.5228 58.0807 45.1811 67.3003 53.4049 64.559C61.6288 61.8178 61.449 53.9574 61.449 53.9574L86.3761 62.7204Z" fill="#2F2E41"/>
<path d="M29.694 23.2876C29.694 23.2876 35.264 11.2194 45.9397 14.0044C56.6155 16.7894 62.6496 20.9668 63.1138 25.1443C63.5779 29.3217 62.8817 35.5879 62.8817 35.5879C62.8817 35.5879 61.7213 27.0009 54.2947 28.8576C46.8681 30.7142 35.264 29.3217 35.264 29.3217L33.4074 46.0316C33.4074 46.0316 31.3186 43.0145 28.9978 44.8712C26.677 46.7278 22.2674 27.0009 29.694 23.2876Z" fill="#2F2E41"/>
<path d="M28.2422 86.7754C27.8148 86.6037 27.3905 86.4257 26.9694 86.2416C26.6818 86.1164 26.3942 85.9873 26.1093 85.8541C21.8382 83.8736 17.9034 81.2366 14.4479 78.039C15.6715 76.3722 16.674 75.5241 16.674 75.5241H24.8978L26.1306 79.67L28.2422 86.7754Z" fill="#2F2E41"/>
<path d="M79.172 61.8177L86.2269 63.0639C84.3389 67.3649 81.7891 71.3437 78.6701 74.8558L79.172 61.8177Z" fill="#2F2E41"/>
<circle opacity="0.8" cx="45" cy="45" r="45" fill="black" fill-opacity="0.86"/>
<path opacity="0.75" d="M40.45 33L37.9795 35.6667H33.7C32.215 35.6667 31 36.8667 31 38.3333V54.3333C31 55.8 32.215 57 33.7 57H55.3C56.785 57 58 55.8 58 54.3333V38.3333C58 36.8667 56.785 35.6667 55.3 35.6667H51.0205L48.55 33H40.45ZM44.5 53C40.774 53 37.75 50.0133 37.75 46.3333C37.75 42.6533 40.774 39.6667 44.5 39.6667C48.226 39.6667 51.25 42.6533 51.25 46.3333C51.25 50.0133 48.226 53 44.5 53Z" fill="white"/>
</g>
<defs>
<clipPath id="clip0">
<path d="M0 0H90V90H0V0Z" fill="white"/>
</clipPath>
</defs>
</svg>
